<?xml version="1.0" standalone="no"?>
<!DOCTYPE svg PUBLIC "-//W3C//DTD SVG 20010904//EN"
 "http://www.w3.org/TR/2001/REC-SVG-20010904/DTD/svg10.dtd">
<svg version="1.0" xmlns="http://www.w3.org/2000/svg"
 width="1000.000000pt" height="78.000000pt" viewBox="0 0 1000.000000 78.000000"
 preserveAspectRatio="xMidYMid meet">

<g transform="translate(0.000000,78.000000) scale(0.100000,-0.100000)"
fill="#000000" stroke="none">
<path d="M50 687 l0 -72 175 -175 175 -175 115 115 115 115 0 -248 0 -247 55
0 55 0 0 375 c0 206 -3 375 -7 375 -4 0 -81 -73 -170 -162 l-163 -163 -168
168 c-92 92 -171 167 -175 167 -4 0 -7 -33 -7 -73z"/>
<path d="M860 705 l0 -55 338 2 337 3 3 53 3 52 -340 0 -341 0 0 -55z"/>
<path d="M1745 741 c-155 -70 -174 -280 -33 -377 41 -29 43 -29 217 -34 190
-5 210 -11 236 -60 23 -45 19 -85 -14 -122 l-29 -33 -147 -3 c-81 -2 -158 -1
-170 2 -29 8 -75 54 -75 77 0 16 -8 19 -55 19 -52 0 -55 -1 -55 -25 0 -64 77
-155 147 -174 51 -15 326 -14 374 0 155 47 199 250 78 367 -50 49 -109 62
-282 62 l-149 0 -29 29 c-23 23 -29 38 -29 71 0 95 31 110 231 110 l151 0 34
-34 c19 -19 34 -41 34 -50 0 -13 11 -16 55 -16 49 0 55 2 55 20 0 60 -58 140
-125 171 -59 27 -361 27 -420 0z"/>
<path d="M2593 741 c-99 -34 -177 -104 -220 -197 -89 -196 -9 -415 185 -507
61 -29 76 -32 162 -32 87 0 101 3 161 32 80 39 150 111 187 191 23 49 27 70
27 152 0 86 -3 101 -31 160 -68 141 -193 220 -348 220 -42 -1 -93 -8 -123 -19z
m217 -106 c61 -21 112 -66 146 -127 25 -46 29 -63 29 -128 0 -85 -15 -122 -74
-183 -58 -62 -104 -82 -191 -82 -62 1 -84 5 -126 27 -159 83 -195 297 -71 426
72 76 187 102 287 67z"/>
<path d="M3605 741 c-155 -70 -174 -280 -33 -377 41 -29 43 -29 217 -34 190
-5 210 -11 236 -60 23 -45 19 -85 -14 -122 l-29 -33 -147 -3 c-81 -2 -158 -1
-170 2 -29 8 -75 54 -75 77 0 16 -8 19 -55 19 -52 0 -55 -1 -55 -25 0 -64 77
-155 147 -174 51 -15 326 -14 374 0 155 47 199 250 78 367 -50 49 -109 62
-282 62 l-149 0 -29 29 c-23 23 -29 38 -29 71 0 95 31 110 231 110 l151 0 34
-34 c19 -19 34 -41 34 -50 0 -13 11 -16 55 -16 49 0 55 2 55 20 0 60 -58 140
-125 171 -59 27 -361 27 -420 0z"/>
<path d="M4463 741 c-99 -34 -177 -104 -220 -197 -89 -196 -9 -415 185 -507
61 -29 76 -32 162 -32 87 0 101 3 161 32 80 39 150 111 187 191 23 49 27 70
27 152 0 86 -3 101 -31 160 -68 141 -193 220 -348 220 -42 -1 -93 -8 -123 -19z
m217 -106 c61 -21 112 -66 146 -127 25 -46 29 -63 29 -128 0 -85 -15 -122 -74
-183 -58 -62 -104 -82 -191 -82 -62 1 -84 5 -126 27 -159 83 -195 297 -71 426
72 76 187 102 287 67z"/>
<path d="M5072 708 l3 -53 338 -3 337 -2 0 55 0 55 -341 0 -340 0 3 -52z"/>
<path d="M5862 708 l3 -53 343 -3 342 -2 0 55 0 55 -346 0 -345 0 3 -52z"/>
<path d="M7969 699 c-19 -35 -33 -68 -31 -73 2 -5 80 -148 174 -317 l172 -309
74 0 c40 0 71 3 69 8 -3 4 -96 171 -207 372 -112 201 -206 369 -210 373 -4 5
-23 -20 -41 -54z"/>
<path d="M8500 380 l0 -380 60 0 60 0 0 180 0 180 110 2 c61 0 115 1 122 2 6
1 61 -81 122 -181 l111 -182 63 -1 c34 0 62 3 62 6 0 4 -52 93 -117 198 -64
105 -118 195 -121 199 -2 5 19 30 48 57 63 62 110 156 117 240 l6 60 -322 0
-321 0 0 -380z m510 256 c0 -26 -65 -100 -115 -131 -45 -28 -56 -30 -162 -33
l-113 -4 0 91 0 91 195 0 c162 0 195 -2 195 -14z"/>
<path d="M9280 705 l0 -55 338 2 337 3 3 53 3 52 -340 0 -341 0 0 -55z"/>
<path d="M6660 745 c0 -4 330 -738 334 -742 1 -2 51 105 110 237 60 132 110
240 111 240 1 0 51 -108 110 -240 60 -132 109 -239 111 -237 2 2 324 716 331
735 4 9 -11 12 -55 12 l-60 0 -107 -237 c-59 -131 -108 -239 -109 -240 -2 -2
-51 105 -111 237 -59 132 -109 240 -110 240 -1 0 -51 -108 -111 -240 -62 -139
-111 -235 -115 -228 -3 7 -53 115 -109 241 l-102 227 -59 0 c-33 0 -59 -2 -59
-5z"/>
<path d="M860 300 l0 -300 340 0 340 0 0 55 0 55 -285 0 -285 0 0 120 0 120
245 0 245 0 0 55 0 55 -245 0 -245 0 0 70 0 70 -55 0 -55 0 0 -300z"/>
<path d="M5077 594 c-4 -4 -7 -139 -7 -301 l0 -293 60 0 60 0 0 175 0 175 245
0 245 0 0 55 0 55 -245 0 -244 0 -3 68 -3 67 -50 3 c-28 2 -54 0 -58 -4z"/>
<path d="M6147 594 c-4 -4 -7 -139 -7 -301 l0 -293 60 0 60 0 -2 298 -3 297
-50 3 c-28 2 -54 0 -58 -4z"/>
<path d="M9280 300 l0 -300 340 0 340 0 0 55 0 55 -285 0 -285 0 0 120 0 120
245 0 245 0 0 55 0 55 -245 0 -245 0 0 70 0 70 -55 0 -55 0 0 -300z"/>
<path d="M7755 315 c-75 -136 -145 -262 -157 -281 l-20 -34 75 0 75 0 120 217
120 217 -29 57 c-16 32 -33 60 -38 63 -5 3 -71 -104 -146 -239z"/>
<path d="M50 267 l0 -267 60 0 60 0 0 208 0 208 -60 59 -60 59 0 -267z"/>
<path d="M3200 55 l0 -55 80 0 80 0 0 55 0 55 -80 0 -80 0 0 -55z"/>
</g>
</svg>
